<svg width="119" height="24" viewBox="0 0 119 24" fill="none" xmlns="http://www.w3.org/2000/svg">
<rect width="24" height="24" fill="#1E2329"/>
<path d="M11.4286 4.95237C9.55942 4.95237 7.76684 5.69489 6.44515 7.01657C5.12347 8.33825 4.38095 10.1308 4.38095 12C4.38095 13.8691 5.12347 15.6617 6.44515 16.9834C7.76683 18.3051 9.55942 19.0476 11.4286 19.0476L11.4286 12L11.4286 4.95237Z" fill="white"/>
<rect x="13.7143" y="13.1428" width="5.90476" height="5.90476" fill="white"/>
<ellipse cx="16.4762" cy="7.90477" rx="2.95238" ry="2.95238" fill="white"/>
<path d="M42.9708 12.0849H46.1114V18.1114C45.305 18.7197 44.3714 19.1866 43.3103 19.5119C42.2493 19.8373 41.1813 20 40.1061 20C38.5641 20 37.1777 19.6746 35.947 19.0239C34.7162 18.359 33.7471 17.4465 33.0398 16.2865C32.3466 15.1123 32 13.7896 32 12.3183C32 10.847 32.3466 9.53139 33.0398 8.37135C33.7471 7.19717 34.7233 6.2847 35.9682 5.63395C37.2131 4.96905 38.6136 4.63661 40.1698 4.63661C41.4713 4.63661 42.6525 4.85588 43.7135 5.29443C44.7745 5.73298 45.6658 6.36958 46.3873 7.20424L44.1804 9.24138C43.1194 8.12379 41.8391 7.56499 40.3395 7.56499C39.3917 7.56499 38.55 7.76304 37.8143 8.15915C37.0787 8.55526 36.5057 9.11406 36.0955 9.83554C35.6852 10.557 35.4801 11.3846 35.4801 12.3183C35.4801 13.2378 35.6852 14.0584 36.0955 14.7798C36.5057 15.5013 37.0716 16.0672 37.7931 16.4775C38.5287 16.8736 39.3634 17.0716 40.2971 17.0716C41.2874 17.0716 42.1786 16.8594 42.9708 16.435V12.0849Z" fill="#1E2329"/>
<path d="M53.6761 8.15915C55.4444 8.15915 56.8025 8.58355 57.7503 9.43236C58.6982 10.267 59.1721 11.5332 59.1721 13.2308V19.7454H56.0739V18.3236C55.4515 19.3846 54.2914 19.9151 52.5938 19.9151C51.7167 19.9151 50.9528 19.7666 50.3021 19.4695C49.6655 19.1724 49.1774 18.7622 48.8379 18.2387C48.4983 17.7153 48.3286 17.1211 48.3286 16.4562C48.3286 15.3952 48.7247 14.5606 49.5169 13.9523C50.3233 13.3439 51.5611 13.0398 53.2304 13.0398H55.8617C55.8617 12.3183 55.6425 11.7666 55.2039 11.3846C54.7654 10.9885 54.1075 10.7905 53.2304 10.7905C52.6221 10.7905 52.0209 10.8895 51.4267 11.0875C50.8467 11.2714 50.3516 11.5261 49.9413 11.8515L48.753 9.53846C49.3754 9.09991 50.1181 8.76039 50.9811 8.51989C51.8582 8.2794 52.7565 8.15915 53.6761 8.15915ZM53.4214 17.687C53.9873 17.687 54.4895 17.5597 54.9281 17.305C55.3666 17.0363 55.6778 16.6472 55.8617 16.1379V14.9708H53.5912C52.2331 14.9708 51.554 15.4164 51.554 16.3077C51.554 16.7321 51.7167 17.0716 52.0421 17.3263C52.3816 17.5668 52.8414 17.687 53.4214 17.687Z" fill="#1E2329"/>
<path d="M62.1681 4H65.4785V19.7454H62.1681V4Z" fill="#1E2329"/>
<path d="M68.5507 4H71.8611V19.7454H68.5507V4Z" fill="#1E2329"/>
<path d="M86.1164 14.0796C86.1164 14.122 86.0952 14.4191 86.0527 14.9708H77.4161C77.5717 15.6782 77.9395 16.237 78.5196 16.6472C79.0996 17.0575 79.8211 17.2626 80.684 17.2626C81.2782 17.2626 81.8016 17.1777 82.2543 17.008C82.7212 16.824 83.1526 16.5411 83.5487 16.1592L85.31 18.069C84.2349 19.2997 82.6646 19.9151 80.5991 19.9151C79.3118 19.9151 78.173 19.6676 77.1827 19.1724C76.1924 18.6631 75.4285 17.9629 74.8909 17.0716C74.3533 16.1804 74.0846 15.1689 74.0846 14.0371C74.0846 12.9195 74.3463 11.9151 74.8697 11.0239C75.4073 10.1185 76.1358 9.41821 77.0554 8.92308C77.9891 8.41379 79.0289 8.15915 80.1747 8.15915C81.2923 8.15915 82.3038 8.39965 83.2092 8.88064C84.1146 9.36163 84.822 10.0548 85.3312 10.9602C85.8547 11.8515 86.1164 12.8912 86.1164 14.0796ZM80.196 10.6631C79.4462 10.6631 78.8167 10.8753 78.3074 11.2997C77.7981 11.7241 77.4869 12.3042 77.3737 13.0398H82.997C82.8838 12.3183 82.5726 11.7454 82.0633 11.321C81.554 10.8824 80.9316 10.6631 80.196 10.6631Z" fill="#1E2329"/>
<path d="M91.4821 9.83554C91.8782 9.28382 92.4087 8.86649 93.0736 8.58355C93.7527 8.30062 94.5307 8.15915 95.4078 8.15915V11.2149C95.04 11.1866 94.7924 11.1724 94.6651 11.1724C93.7173 11.1724 92.9746 11.4412 92.437 11.9788C91.8994 12.5022 91.6306 13.2944 91.6306 14.3554V19.7454H88.3203V8.32891H91.4821V9.83554Z" fill="#1E2329"/>
<path d="M98.1805 19.8515C97.8693 19.8515 97.6005 19.7383 97.3742 19.5119C97.162 19.2856 97.0559 19.0097 97.0559 18.6844C97.0559 18.359 97.162 18.0902 97.3742 17.878C97.6005 17.6516 97.8693 17.5385 98.1805 17.5385C98.4918 17.5385 98.7606 17.6516 98.9869 17.878C99.2133 18.0902 99.3264 18.359 99.3264 18.6844C99.3264 19.0097 99.2133 19.2856 98.9869 19.5119C98.7606 19.7383 98.4918 19.8515 98.1805 19.8515Z" fill="#1E2329"/>
<path d="M102.529 8.58355H104.035V19.7454H102.529V8.58355ZM103.293 6.14324C102.982 6.14324 102.72 6.03714 102.508 5.82493C102.295 5.61273 102.189 5.35809 102.189 5.06101C102.189 4.77807 102.295 4.5305 102.508 4.3183C102.72 4.1061 102.982 4 103.293 4C103.604 4 103.866 4.1061 104.078 4.3183C104.29 4.51636 104.396 4.75685 104.396 5.03979C104.396 5.35102 104.29 5.61273 104.078 5.82493C103.866 6.03714 103.604 6.14324 103.293 6.14324Z" fill="#1E2329"/>
<path d="M112.79 19.8515C111.715 19.8515 110.746 19.611 109.883 19.13C109.02 18.6348 108.341 17.9558 107.846 17.0928C107.351 16.2299 107.103 15.2538 107.103 14.1645C107.103 13.0752 107.351 12.099 107.846 11.2361C108.341 10.3731 109.02 9.70115 109.883 9.22016C110.746 8.73917 111.715 8.49867 112.79 8.49867C113.865 8.49867 114.834 8.73917 115.697 9.22016C116.56 9.70115 117.232 10.3731 117.713 11.2361C118.208 12.099 118.456 13.0752 118.456 14.1645C118.456 15.2538 118.208 16.2299 117.713 17.0928C117.232 17.9558 116.56 18.6348 115.697 19.13C114.834 19.611 113.865 19.8515 112.79 19.8515ZM112.79 18.5146C113.582 18.5146 114.29 18.3378 114.912 17.9841C115.549 17.6163 116.044 17.0999 116.397 16.435C116.751 15.7701 116.928 15.0133 116.928 14.1645C116.928 13.3156 116.751 12.5588 116.397 11.8939C116.044 11.229 115.549 10.7197 114.912 10.366C114.29 9.99823 113.582 9.81432 112.79 9.81432C111.998 9.81432 111.283 9.99823 110.647 10.366C110.024 10.7197 109.529 11.229 109.161 11.8939C108.808 12.5588 108.631 13.3156 108.631 14.1645C108.631 15.0133 108.808 15.7701 109.161 16.435C109.529 17.0999 110.024 17.6163 110.647 17.9841C111.283 18.3378 111.998 18.5146 112.79 18.5146Z" fill="#1E2329"/>
</svg>
